# Blender v2.92.0 OBJ File: ''
# www.blender.org
mtllib player_spawn_1.mtl
o 立方体
v -1.973545 -1.775081 1.973545
v -1.973545 -1.164086 1.973545
v -1.973545 -1.775081 -1.973545
v -1.973545 -1.164086 -1.973545
v 1.973545 -1.775081 1.973545
v 1.973545 -1.164086 1.973545
v 1.973545 -1.775081 -1.973545
v 1.973545 -1.164086 -1.973545
v 1.436710 4.138140 -1.000000
v 1.436710 -1.492551 -1.000000
v 1.436710 4.138140 1.000000
v 1.436710 -1.492551 1.000000
v -1.438714 4.138140 -1.000000
v -1.438714 -1.492551 -1.000000
v -1.438714 4.138140 1.000000
v -1.438714 -1.492551 1.000000
v -1.765913 -0.558064 1.765913
v -1.765913 -0.229494 1.765913
v -1.765913 -0.558064 -1.765913
v -1.765913 -0.229494 -1.765913
v 1.765913 -0.558064 1.765913
v 1.765913 -0.229494 1.765913
v 1.765913 -0.558064 -1.765913
v 1.765913 -0.229494 -1.765913
v -2.536513 2.536923 1.914163
v -2.536513 4.948028 1.914163
v -2.536513 2.536923 -1.914163
v -2.536513 4.948028 -1.914163
v 2.536513 2.536923 1.914163
v 2.536513 4.948028 1.914163
v 2.536513 2.536923 -1.914163
v 2.536513 4.948028 -1.914163
v 1.436710 2.173357 1.000000
v -1.438714 2.173357 -1.000000
v -1.438714 2.173357 1.000000
v 1.436710 2.173357 -1.000000
v 1.436710 1.943554 1.000000
v -1.438714 1.943554 -1.000000
v 1.436710 1.943554 -1.000000
v -1.438714 1.943554 1.000000
v 0.000000 4.138140 1.000000
v 0.000000 4.138140 -1.000000
v 0.000000 -1.492551 1.000000
v 0.000000 -1.492551 -1.000000
v 0.000000 2.173357 -1.000000
v 0.000000 2.173357 1.000000
v 0.000000 1.943554 -1.000000
v 1.077282 4.138140 -1.000000
v 1.077282 -1.492551 1.000000
v 1.077282 2.173357 -1.000000
v 1.077282 1.943554 -1.000000
v 1.077282 4.138140 1.000000
v 1.077282 -1.492551 -1.000000
v 1.077282 2.173357 1.000000
v 1.077282 1.943554 1.000000
v -1.069571 4.138140 1.000000
v -1.069571 -1.492551 -1.000000
v -1.069571 2.173357 1.000000
v -1.069571 1.943554 1.000000
v -1.069571 4.138140 -1.000000
v -1.069571 -1.492551 1.000000
v -1.069571 2.173357 -1.000000
v -1.069571 1.943554 -1.000000
v 1.436710 1.560549 1.000000
v -1.438714 1.560549 -1.000000
v 1.436710 1.560549 -1.000000
v -1.438714 1.560549 1.000000
v 0.000000 1.560549 -1.000000
v 1.077282 1.560549 1.000000
v 1.077282 1.560549 -1.000000
v -1.069571 1.560549 -1.000000
v -1.069571 1.560549 1.000000
v 1.436710 1.348441 1.000000
v -1.438714 1.348441 -1.000000
v 1.436710 1.348441 -1.000000
v 0.000000 1.348441 -1.000000
v 1.077282 1.348441 1.000000
v 1.077282 1.348441 -1.000000
v -1.069571 1.348441 -1.000000
v -1.069571 1.348441 1.000000
v -1.438714 1.348441 1.000000
v 1.436710 0.959078 1.000000
v -1.438714 0.959078 -1.000000
v 1.436710 0.959078 -1.000000
v 0.000000 0.959078 -1.000000
v 1.077282 0.959078 1.000000
v 1.077282 0.959078 -1.000000
v -1.069571 0.959078 -1.000000
v -1.069571 0.959078 1.000000
v -1.438714 0.959078 1.000000
v 1.436710 0.765637 1.000000
v -1.438714 0.765637 -1.000000
v 1.436710 0.765637 -1.000000
v 0.000000 0.765637 -1.000000
v 1.077282 0.765637 1.000000
v 1.077282 0.765637 -1.000000
v -1.069571 0.765637 -1.000000
v -1.069571 0.765637 1.000000
v -1.438714 0.765638 1.000000
v 1.436710 0.362001 1.000000
v -1.438714 0.362001 -1.000000
v 1.436710 0.362001 -1.000000
v 0.000000 0.362001 -1.000000
v 1.077282 0.362001 1.000000
v 1.077282 0.362001 -1.000000
v -1.069571 0.362001 -1.000000
v -1.069571 0.362001 1.000000
v -1.438714 0.362001 1.000000
v 1.436710 0.149571 1.000000
v -1.438714 0.149571 -1.000000
v 1.436710 0.149571 -1.000000
v 0.000000 0.149571 -1.000000
v 0.000000 0.149571 1.000000
v 1.077282 0.149571 1.000000
v 1.077282 0.149571 -1.000000
v -1.069571 0.149571 -1.000000
v -1.069571 0.149571 1.000000
v -1.438714 0.149571 1.000000
v 1.077282 1.348441 0.699956
v 0.000000 1.943554 1.000000
v -1.069571 1.560549 0.699956
v 1.077282 1.943554 1.000000
v 1.077282 1.560549 0.699956
v -1.069571 1.943554 1.000000
v 0.000000 1.560549 1.000000
v 1.077282 1.560549 1.000000
v -1.069571 1.560549 1.000000
v 0.000000 1.348441 1.000000
v 1.077282 1.348441 1.000000
v -1.069571 1.348441 1.000000
v 0.000000 0.959078 1.000000
v 1.077282 0.959078 1.000000
v -1.069571 0.959078 1.000000
v 0.000000 0.765637 1.000000
v 1.077282 0.765637 1.000000
v -1.069571 0.765637 1.000000
v 0.000000 0.362001 1.000000
v 1.077282 0.362001 1.000000
v -1.069571 0.362001 1.000000
v 0.000000 2.173357 0.703754
v 1.077282 2.173357 0.703754
v 1.077282 1.943554 0.703754
v -1.069571 2.173357 0.703754
v -1.069571 1.943554 0.703754
v 0.000000 2.173357 0.703754
v 0.000000 1.943554 0.703754
v 1.077282 2.173357 0.703754
v 1.077282 1.943554 0.703754
v -1.069571 2.173357 0.703754
v -1.069571 1.943554 0.703754
v -1.069571 1.348441 0.699956
v 0.000000 1.560549 0.699956
v 1.077282 1.560549 0.699956
v -1.069571 1.560549 0.699956
v 0.000000 1.348441 0.699956
v 1.077282 1.348441 0.699956
v -1.069571 1.348441 0.699956
v 1.077282 0.959078 0.703754
v -1.069571 0.959078 0.703754
v 1.077282 0.765637 0.703754
v -1.069571 0.765637 0.703754
v 0.000000 0.959078 0.703754
v 1.077282 0.959078 0.703754
v -1.069571 0.959078 0.703754
v 0.000000 0.765637 0.703754
v 1.077282 0.765637 0.703754
v -1.069571 0.765637 0.703754
v 1.077282 0.362001 0.707552
v -1.069571 0.362001 0.707552
v 0.000000 0.149571 0.707552
v 1.077282 0.149571 0.707552
v -1.069571 0.149571 0.707552
v 0.000000 0.362001 0.707552
v 1.077282 0.362001 0.707552
v -1.069571 0.362001 0.707552
v 0.000000 0.149571 0.707552
v 1.077282 0.149571 0.707552
v -1.069571 0.149571 0.707552
v 0.000000 2.173357 -0.684976
v 0.000000 1.943554 -0.684976
v 1.077282 2.173357 -0.684976
v 1.077282 1.943554 -0.684976
v -1.069571 2.173357 -0.684976
v -1.069571 1.943554 -0.684976
v 0.000000 1.560549 -0.698102
v 1.077282 1.560549 -0.698102
v -1.069571 1.560549 -0.698102
v 0.000000 1.348441 -0.698102
v 1.077282 1.348441 -0.698102
v -1.069571 1.348441 -0.698102
v 0.000000 0.959078 -0.697979
v 1.077282 0.959078 -0.697979
v -1.069571 0.959078 -0.697979
v 0.000000 0.765637 -0.697979
v 1.077282 0.765637 -0.697979
v -1.069571 0.765637 -0.697979
v 0.000000 0.362001 -0.708311
v 1.077282 0.362001 -0.708311
v -1.069571 0.362001 -0.708311
v 0.000000 0.149571 -0.708311
v 1.077282 0.149571 -0.708311
v -1.069571 0.149571 -0.708311
vt 0.163887 0.017458
vt 0.216034 0.017458
vt 0.216034 0.069605
vt 0.163887 0.069605
vt 0.216034 0.121752
vt 0.163887 0.121752
vt 0.216034 0.173899
vt 0.163887 0.173899
vt 0.216034 0.226047
vt 0.163887 0.226047
vt 0.111740 0.121752
vt 0.111740 0.173899
vt 0.268182 0.121752
vt 0.268182 0.173899
vt 0.700634 0.014895
vt 0.731340 0.014895
vt 0.731340 0.260548
vt 0.700634 0.260548
vt 0.645622 0.260548
vt 0.731340 0.260548
vt 0.731340 0.506201
vt 0.645622 0.506201
vt 0.645622 0.506201
vt 0.731340 0.506201
vt 0.731340 0.751854
vt 0.645622 0.751854
vt 0.699804 0.751854
vt 0.731340 0.997506
vt 0.699804 0.997506
vt 0.399969 0.720317
vt 0.485687 0.720317
vt 0.485687 0.751854
vt 0.399969 0.751854
vt 0.891274 0.721147
vt 0.976993 0.721147
vt 0.976993 0.751854
vt 0.891274 0.751854
vt 0.151793 0.291520
vt 0.197125 0.291520
vt 0.197125 0.336853
vt 0.151793 0.336853
vt 0.197125 0.382185
vt 0.151793 0.382185
vt 0.197125 0.427518
vt 0.151793 0.427518
vt 0.197125 0.472850
vt 0.151793 0.472850
vt 0.106460 0.382185
vt 0.106460 0.427518
vt 0.242457 0.382185
vt 0.242457 0.427518
vt 0.075180 0.753847
vt 0.135757 0.753847
vt 0.135757 0.814423
vt 0.075180 0.814423
vt 0.135757 0.875000
vt 0.075180 0.875000
vt 0.135757 0.935577
vt 0.075180 0.935577
vt 0.135757 0.996153
vt 0.075180 0.996153
vt 0.014604 0.875000
vt 0.014604 0.935577
vt 0.196334 0.875000
vt 0.196334 0.935577
vt 0.881249 0.721147
vt 0.881249 0.751854
vt 0.389943 0.720317
vt 0.389943 0.751854
vt 0.635596 0.506201
vt 0.635596 0.751854
vt 0.635596 0.260548
vt 0.635596 0.506201
vt 0.618886 0.260548
vt 0.618886 0.506201
vt 0.618886 0.506201
vt 0.618886 0.751854
vt 0.373233 0.720317
vt 0.373234 0.751854
vt 0.864539 0.721147
vt 0.864539 0.751854
vt 0.864539 0.537737
vt 0.881249 0.537737
vt 0.881249 0.629027
vt 0.864539 0.629027
vt 0.363980 0.720317
vt 0.350859 0.720317
vt 0.350859 0.720317
vt 0.363980 0.720317
vt 0.401137 0.780288
vt 0.401137 0.780288
vt 0.401137 0.780288
vt 0.401137 0.780288
vt 0.881249 0.721147
vt 0.891274 0.721147
vt 0.891274 0.537737
vt 0.976993 0.537737
vt 0.976993 0.629027
vt 0.891274 0.629027
vt 0.399969 0.536907
vt 0.485687 0.536907
vt 0.485687 0.629027
vt 0.399969 0.629027
vt 0.516394 0.751854
vt 0.608514 0.751854
vt 0.608514 0.997506
vt 0.516394 0.997506
vt 0.517224 0.014895
vt 0.608514 0.014895
vt 0.608514 0.260548
vt 0.517224 0.260548
vt 0.485687 0.751854
vt 0.485687 0.997506
vt 0.399969 0.506201
vt 0.485687 0.506201
vt 0.389943 0.506201
vt 0.389943 0.536907
vt 0.373233 0.506201
vt 0.373233 0.536907
vt 0.891274 0.537737
vt 0.881249 0.537737
vt 0.485687 0.014895
vt 0.485687 0.260548
vt 0.891274 0.506201
vt 0.976993 0.506201
vt 0.881249 0.506201
vt 0.864539 0.506201
vt 0.373233 0.720317
vt 0.389943 0.720317
vt 0.293005 0.872408
vt 0.293005 0.963698
vt 0.293005 0.963698
vt 0.293005 0.872408
vt 0.764017 0.967660
vt 0.764017 0.876370
vt 0.764017 0.876370
vt 0.764017 0.967660
vt 0.855285 0.506201
vt 0.855285 0.537737
vt 0.855285 0.629027
vt 0.855285 0.537737
vt 0.855285 0.629027
vt 0.363980 0.506201
vt 0.363980 0.536907
vt 0.852788 0.786933
vt 0.852788 0.786933
vt 0.852788 0.786933
vt 0.852788 0.786933
vt 0.864539 0.537737
vt 0.855285 0.721147
vt 0.855285 0.751854
vt 0.363980 0.751854
vt 0.609633 0.506201
vt 0.609633 0.751854
vt 0.609633 0.260548
vt 0.609633 0.506201
vt 0.596512 0.260548
vt 0.596512 0.506201
vt 0.596512 0.506201
vt 0.596512 0.751854
vt 0.350859 0.751854
vt 0.842165 0.721147
vt 0.842165 0.751854
vt 0.842165 0.537737
vt 0.842165 0.629027
vt 0.282980 0.963698
vt 0.282980 0.963698
vt 0.350859 0.506201
vt 0.350859 0.536907
vt 0.842165 0.506201
vt 0.363980 0.536907
vt 0.350859 0.536907
vt 0.822136 0.879053
vt 0.822136 0.786933
vt 0.822136 0.786933
vt 0.822136 0.879053
vt 0.833725 0.506201
vt 0.833725 0.537737
vt 0.833725 0.629027
vt 0.833725 0.537737
vt 0.833725 0.629027
vt 0.342420 0.506201
vt 0.342420 0.536907
vt 0.282980 0.780288
vt 0.293005 0.780288
vt 0.293005 0.780288
vt 0.282980 0.780288
vt 0.842165 0.537737
vt 0.833725 0.721147
vt 0.833726 0.751854
vt 0.342420 0.720317
vt 0.342420 0.751854
vt 0.588073 0.506201
vt 0.588073 0.751854
vt 0.588073 0.260548
vt 0.588073 0.506201
vt 0.541071 0.260548
vt 0.541071 0.506201
vt 0.541071 0.506201
vt 0.541071 0.751854
vt 0.295418 0.720317
vt 0.295418 0.751854
vt 0.786724 0.721147
vt 0.786724 0.751854
vt 0.786724 0.537737
vt 0.786724 0.629027
vt 0.295418 0.720317
vt 0.342420 0.720317
vt 0.295418 0.506201
vt 0.295418 0.536907
vt 0.786724 0.506201
vt 0.389943 0.536907
vt 0.373233 0.536907
vt 0.764017 0.967660
vt 0.764017 0.967660
vt 0.756072 0.506201
vt 0.756072 0.537737
vt 0.756072 0.629027
vt 0.756072 0.537737
vt 0.756072 0.629027
vt 0.264766 0.506201
vt 0.264766 0.536907
vt 0.391883 0.963698
vt 0.391883 0.872408
vt 0.391883 0.872408
vt 0.391883 0.963698
vt 0.786724 0.537737
vt 0.756072 0.721147
vt 0.756072 0.751854
vt 0.264766 0.720317
vt 0.264766 0.751854
vt 0.510419 0.506201
vt 0.510419 0.751854
vt 0.510419 0.260548
vt 0.510419 0.506201
vt 0.485687 0.260548
vt 0.485687 0.506201
vt 0.485687 0.506201
vt 0.485687 0.751854
vt 0.240034 0.720317
vt 0.240034 0.751854
vt 0.731340 0.721147
vt 0.731340 0.751854
vt 0.731340 0.537737
vt 0.731340 0.629027
vt 0.240034 0.536907
vt 0.264766 0.629027
vt 0.240034 0.629027
vt 0.240034 0.506201
vt 0.731340 0.506201
vt 0.389943 0.629027
vt 0.373233 0.629027
vt 0.282980 0.872408
vt 0.282980 0.780288
vt 0.282980 0.780288
vt 0.282980 0.872408
vt 0.391883 0.780288
vt 0.391883 0.780288
vt 0.401137 0.963698
vt 0.401137 0.963698
vt 0.401137 0.963698
vt 0.401137 0.963698
vt 0.363980 0.629027
vt 0.350859 0.629027
vt 0.764017 0.784250
vt 0.764017 0.784250
vt 0.764017 0.784250
vt 0.764017 0.784250
vt 0.295418 0.536907
vt 0.342420 0.536907
vt 0.342420 0.629027
vt 0.295418 0.629027
vt 0.852788 0.879053
vt 0.852788 0.970343
vt 0.852788 0.970343
vt 0.852788 0.879053
vt 0.852788 0.970343
vt 0.822136 0.970343
vt 0.822136 0.970343
vt 0.852788 0.970343
vt 0.293005 0.872408
vt 0.293005 0.780288
vt 0.293005 0.963698
vt 0.282980 0.963698
vt 0.282980 0.963698
vt 0.391883 0.780288
vt 0.391883 0.963698
vt 0.401137 0.872408
vt 0.391883 0.963698
vt 0.401137 0.872408
vt 0.391883 0.780288
vt 0.772456 0.967660
vt 0.772456 0.967660
vt 0.772456 0.784250
vt 0.772456 0.784250
vt 0.772456 0.876370
vt 0.772456 0.967660
vt 0.772456 0.784250
vt 0.772456 0.876370
vt 0.772456 0.967660
vt 0.772456 0.784250
vt 0.822136 0.786933
vt 0.822136 0.879053
vt 0.822136 0.970343
vt 0.876608 0.287260
vt 0.886634 0.287260
vt 0.886634 0.378550
vt 0.876608 0.378550
vt 0.886634 0.470669
vt 0.876608 0.470669
vt 0.881249 0.629027
vt 0.891274 0.629027
vt 0.944284 0.377541
vt 0.953537 0.377541
vt 0.953537 0.469661
vt 0.944284 0.469661
vt 0.944284 0.286251
vt 0.953537 0.286251
vt 0.864539 0.721147
vt 0.864539 0.629027
vt 0.855285 0.721147
vt 0.825477 0.382275
vt 0.833916 0.382275
vt 0.833916 0.474395
vt 0.825477 0.474395
vt 0.825477 0.290985
vt 0.833916 0.290985
vt 0.842165 0.721147
vt 0.842165 0.629027
vt 0.833725 0.721147
vt 0.759199 0.387197
vt 0.789851 0.387197
vt 0.789851 0.479316
vt 0.759199 0.479316
vt 0.759199 0.295907
vt 0.789851 0.295907
vt 0.786724 0.721147
vt 0.786724 0.629027
vt 0.756072 0.721147
vn -1.0000 0.0000 0.0000
vn 0.0000 0.0000 -1.0000
vn 1.0000 0.0000 0.0000
vn 0.0000 0.0000 1.0000
vn 0.0000 -1.0000 0.0000
vn 0.0000 1.0000 0.0000
usemtl Material.002
s off
f 1/1/1 2/2/1 4/3/1 3/4/1
f 3/4/2 4/3/2 8/5/2 7/6/2
f 7/6/3 8/5/3 6/7/3 5/8/3
f 5/8/4 6/7/4 2/9/4 1/10/4
f 3/11/5 7/6/5 5/8/5 1/12/5
f 8/5/6 4/13/6 2/14/6 6/7/6
f 53/15/5 10/16/5 12/17/5 49/18/5
f 36/19/3 9/20/3 11/21/3 33/22/3
f 35/23/1 15/24/1 13/25/1 34/26/1
f 60/27/6 13/25/6 15/28/6 56/29/6
f 58/30/4 56/31/4 15/32/4 35/33/4
f 50/34/2 48/35/2 9/36/2 36/37/2
f 17/38/1 18/39/1 20/40/1 19/41/1
f 19/41/2 20/40/2 24/42/2 23/43/2
f 23/43/3 24/42/3 22/44/3 21/45/3
f 21/45/4 22/44/4 18/46/4 17/47/4
f 19/48/5 23/43/5 21/45/5 17/49/5
f 24/42/6 20/50/6 18/51/6 22/44/6
f 25/52/1 26/53/1 28/54/1 27/55/1
f 27/55/2 28/54/2 32/56/2 31/57/2
f 31/57/3 32/56/3 30/58/3 29/59/3
f 29/59/4 30/58/4 26/60/4 25/61/4
f 27/62/5 31/57/5 29/59/5 25/63/5
f 32/56/6 28/64/6 26/65/6 30/58/6
f 51/66/2 50/34/2 36/37/2 39/67/2
f 59/68/4 58/30/4 35/33/4 40/69/4
f 40/70/1 35/23/1 34/26/1 38/71/1
f 39/72/3 36/19/3 33/22/3 37/73/3
f 66/74/3 39/72/3 37/73/3 64/75/3
f 67/76/1 40/70/1 38/71/1 65/77/1
f 72/78/4 59/68/4 40/69/4 67/79/4
f 70/80/2 51/66/2 39/67/2 66/81/2
f 71/82/2 63/83/2 47/84/2 68/85/2
f 80/86/4 89/87/4 133/88/4 130/89/4
f 69/90/4 126/91/4 153/92/4 123/93/4
f 50/34/1 51/66/1 182/94/1 181/95/1
f 62/96/2 60/97/2 42/98/2 45/99/2
f 54/100/4 52/101/4 41/102/4 46/103/4
f 48/104/6 42/105/6 41/106/6 52/107/6
f 57/108/5 44/109/5 43/110/5 61/111/5
f 9/112/6 48/104/6 52/107/6 11/113/6
f 33/114/4 11/115/4 52/101/4 54/100/4
f 37/116/4 33/114/4 54/100/4 55/117/4
f 64/118/4 37/116/4 55/117/4 69/119/4
f 68/85/2 47/84/2 51/66/2 70/80/2
f 63/83/3 62/96/3 183/120/3 184/121/3
f 45/99/2 42/98/2 48/35/2 50/34/2
f 44/109/5 53/15/5 49/18/5 43/110/5
f 14/122/5 57/108/5 61/111/5 16/123/5
f 34/124/2 13/125/2 60/97/2 62/96/2
f 38/126/2 34/124/2 62/96/2 63/83/2
f 65/127/2 38/126/2 63/83/2 71/82/2
f 59/68/4 72/78/4 127/128/4 124/129/4
f 46/130/5 58/131/5 143/132/5 140/133/5
f 46/103/4 41/102/4 56/31/4 58/30/4
f 42/105/6 60/27/6 56/29/6 41/106/6
f 136/134/6 134/135/6 165/136/6 167/137/6
f 74/138/2 65/127/2 71/82/2 79/139/2
f 76/140/6 79/139/6 190/141/6 188/142/6
f 73/143/4 64/118/4 69/119/4 77/144/4
f 104/145/4 138/146/4 174/147/4 168/148/4
f 79/139/3 71/82/3 187/149/3 190/141/3
f 78/150/2 70/80/2 66/81/2 75/151/2
f 80/86/4 72/78/4 67/79/4 81/152/4
f 81/153/1 67/76/1 65/77/1 74/154/1
f 75/155/3 66/74/3 64/75/3 73/156/3
f 84/157/3 75/155/3 73/156/3 82/158/3
f 90/159/1 81/153/1 74/154/1 83/160/1
f 89/87/4 80/86/4 81/152/4 90/161/4
f 87/162/2 78/150/2 75/151/2 84/163/2
f 88/164/2 79/139/2 76/140/2 85/165/2
f 58/131/3 59/166/3 144/167/3 143/132/3
f 82/168/4 73/143/4 77/144/4 86/169/4
f 85/165/2 76/140/2 78/150/2 87/162/2
f 83/170/2 74/138/2 79/139/2 88/164/2
f 86/169/4 77/144/4 129/171/4 132/172/4
f 113/173/6 114/174/6 171/175/6 170/176/6
f 92/177/2 83/170/2 88/164/2 97/178/2
f 94/179/6 97/178/6 196/180/6 194/181/6
f 91/182/4 82/168/4 86/169/4 95/183/4
f 55/184/1 54/185/1 141/186/1 142/187/1
f 97/178/3 88/164/3 193/188/3 196/180/3
f 96/189/2 87/162/2 84/163/2 93/190/2
f 98/191/4 89/87/4 90/161/4 99/192/4
f 99/193/1 90/159/1 83/160/1 92/194/1
f 93/195/3 84/157/3 82/158/3 91/196/3
f 102/197/3 93/195/3 91/196/3 100/198/3
f 108/199/1 99/193/1 92/194/1 101/200/1
f 107/201/4 98/191/4 99/192/4 108/202/4
f 105/203/2 96/189/2 93/190/2 102/204/2
f 106/205/2 97/178/2 94/179/2 103/206/2
f 98/191/4 107/201/4 139/207/4 136/208/4
f 100/209/4 91/182/4 95/183/4 104/210/4
f 103/206/2 94/179/2 96/189/2 105/203/2
f 101/211/2 92/177/2 97/178/2 106/205/2
f 69/119/4 55/117/4 122/212/4 126/213/4
f 98/214/4 136/134/4 167/137/4 161/215/4
f 110/216/2 101/211/2 106/205/2 116/217/2
f 112/218/6 116/217/6 202/219/6 200/220/6
f 109/221/4 100/209/4 104/210/4 114/222/4
f 130/223/6 128/224/6 155/225/6 157/226/6
f 116/217/3 106/205/3 199/227/3 202/219/3
f 115/228/2 105/203/2 102/204/2 111/229/2
f 117/230/4 107/201/4 108/202/4 118/231/4
f 118/232/1 108/199/1 101/200/1 110/233/1
f 111/234/3 102/197/3 100/198/3 109/235/3
f 10/236/3 111/234/3 109/235/3 12/237/3
f 16/238/1 118/232/1 110/233/1 14/239/1
f 61/240/4 117/230/4 118/231/4 16/241/4
f 53/242/2 115/228/2 111/229/2 10/243/2
f 57/244/2 116/217/2 112/218/2 44/245/2
f 49/246/4 114/222/4 113/247/4 43/248/4
f 12/249/4 109/221/4 114/222/4 49/246/4
f 44/245/2 112/218/2 115/228/2 53/242/2
f 14/250/2 110/216/2 116/217/2 57/244/2
f 43/248/4 113/247/4 117/230/4 61/240/4
f 126/213/4 122/212/4 120/251/4 125/252/4
f 120/253/6 122/254/6 148/255/6 146/256/6
f 125/252/4 120/251/4 124/129/4 127/128/4
f 54/185/5 46/130/5 140/133/5 141/186/5
f 128/224/6 129/257/6 156/258/6 155/225/6
f 127/259/4 72/260/4 121/261/4 154/262/4
f 132/172/4 129/171/4 128/263/4 131/264/4
f 131/264/4 128/263/4 130/89/4 133/88/4
f 135/265/4 95/266/4 160/267/4 166/268/4
f 134/135/6 135/265/6 166/268/6 165/136/6
f 138/269/4 135/270/4 134/271/4 137/272/4
f 137/272/4 134/271/4 136/208/4 139/207/4
f 137/273/5 139/274/5 175/275/5 173/276/5
f 107/277/3 117/278/3 172/279/3 169/280/3
f 104/210/4 95/183/4 135/270/4 138/269/4
f 139/274/4 107/277/4 169/280/4 175/275/4
f 117/278/6 113/173/6 170/176/6 172/279/6
f 122/254/4 55/184/4 142/187/4 148/255/4
f 141/186/4 140/133/4 145/281/4 147/282/4
f 140/133/4 143/132/4 149/283/4 145/281/4
f 142/187/4 141/186/4 147/282/4 148/255/4
f 148/255/4 147/282/4 145/281/4 146/256/4
f 146/256/4 145/281/4 149/283/4 150/284/4
f 143/132/4 144/167/4 150/284/4 149/283/4
f 59/166/4 124/285/4 150/284/4 144/167/4
f 124/285/6 120/253/6 146/256/6 150/284/6
f 119/286/4 123/93/4 153/92/4 156/258/4
f 121/261/4 151/287/4 157/226/4 154/262/4
f 155/225/4 152/288/4 154/262/4 157/226/4
f 156/258/4 153/92/4 152/288/4 155/225/4
f 72/260/3 80/289/3 151/287/3 121/261/3
f 125/290/5 127/259/5 154/262/5 152/288/5
f 129/257/4 77/291/4 119/286/4 156/258/4
f 77/291/1 69/90/1 123/93/1 119/286/1
f 126/91/5 125/290/5 152/288/5 153/92/5
f 80/289/4 130/223/4 157/226/4 151/287/4
f 159/292/4 161/215/4 167/137/4 164/293/4
f 160/267/4 158/294/4 163/295/4 166/268/4
f 165/136/4 162/296/4 164/293/4 167/137/4
f 166/268/4 163/295/4 162/296/4 165/136/4
f 89/297/3 98/214/3 161/215/3 159/292/3
f 95/266/1 86/298/1 158/294/1 160/267/1
f 131/299/5 133/300/5 164/293/5 162/296/5
f 133/300/4 89/297/4 159/292/4 164/293/4
f 132/301/5 131/299/5 162/296/5 163/295/5
f 86/298/4 132/301/4 163/295/4 158/294/4
f 171/175/4 168/148/4 174/147/4 177/302/4
f 172/279/4 170/176/4 176/303/4 178/304/4
f 176/303/4 173/276/4 175/275/4 178/304/4
f 177/302/4 174/147/4 173/276/4 176/303/4
f 170/176/4 171/175/4 177/302/4 176/303/4
f 169/280/4 172/279/4 178/304/4 175/275/4
f 138/146/5 137/273/5 173/276/5 174/147/5
f 114/174/1 104/145/1 168/148/1 171/175/1
f 184/305/2 183/306/2 179/307/2 180/308/2
f 180/308/2 179/307/2 181/309/2 182/310/2
f 47/84/6 63/83/6 184/121/6 180/311/6
f 45/99/5 50/34/5 181/95/5 179/312/5
f 62/96/5 45/99/5 179/312/5 183/120/5
f 51/66/6 47/84/6 180/311/6 182/94/6
f 188/313/2 185/314/2 186/315/2 189/316/2
f 190/317/2 187/318/2 185/314/2 188/313/2
f 68/85/5 70/80/5 186/319/5 185/320/5
f 78/150/6 76/140/6 188/142/6 189/321/6
f 71/82/5 68/85/5 185/320/5 187/149/5
f 70/80/1 78/150/1 189/321/1 186/319/1
f 194/322/2 191/323/2 192/324/2 195/325/2
f 196/326/2 193/327/2 191/323/2 194/322/2
f 85/165/5 87/162/5 192/328/5 191/329/5
f 96/189/6 94/179/6 194/181/6 195/330/6
f 88/164/5 85/165/5 191/329/5 193/188/5
f 87/162/1 96/189/1 195/330/1 192/328/1
f 200/331/2 197/332/2 198/333/2 201/334/2
f 202/335/2 199/336/2 197/332/2 200/331/2
f 103/206/5 105/203/5 198/337/5 197/338/5
f 115/228/6 112/218/6 200/220/6 201/339/6
f 106/205/5 103/206/5 197/338/5 199/227/5
f 105/203/1 115/228/1 201/339/1 198/337/1
