# Blender v2.92.0 OBJ File: 'TD2_01_ground.blend'
# www.blender.org
mtllib ground.mtl
o 立方体
v -5.011137 -9.999998 46.000000
v -5.011137 10.000002 46.000000
v -5.011137 -9.999998 -46.000004
v -5.011137 10.000002 -46.000004
v 5.011137 -9.999998 46.000000
v 5.011137 10.000002 46.000000
v 5.011137 -9.999998 -46.000004
v 5.011137 10.000002 -46.000004
vt 0.434782 1.000000
vt 0.217391 1.000000
vt 0.217391 0.000000
vt 0.434782 0.000000
vt 0.761596 0.217391
vt 0.761596 0.434782
vt 0.652658 0.434782
vt 0.652658 0.217391
vt 0.217391 1.000000
vt 0.000000 1.000000
vt 0.000000 0.000000
vt 0.217391 0.000000
vt 0.761596 0.000000
vt 0.761596 0.217391
vt 0.652658 0.217391
vt 0.652658 0.000000
vt 0.543720 0.000000
vt 0.543720 1.000000
vt 0.543720 0.000000
vt 0.652658 0.000000
vt 0.652658 1.000000
vt 0.543720 1.000000
vn -1.0000 0.0000 0.0000
vn 0.0000 0.0000 -1.0000
vn 1.0000 0.0000 0.0000
vn 0.0000 0.0000 1.0000
vn 0.0000 -1.0000 0.0000
vn 0.0000 1.0000 0.0000
usemtl Material.002
s off
f 1/1/1 2/2/1 4/3/1 3/4/1
f 3/5/2 4/6/2 8/7/2 7/8/2
f 7/9/3 8/10/3 6/11/3 5/12/3
f 5/13/4 6/14/4 2/15/4 1/16/4
f 3/4/5 7/17/5 5/18/5 1/1/5
f 8/19/6 4/20/6 2/21/6 6/22/6
