# Blender v3.1.2 OBJ File: ''
# www.blender.org
mtllib thorn.mtl
o å††éŒ.001
v 0.000002 4.801372 -4.801367
v -0.000002 -4.801370 -0.000002
v -0.936699 4.801372 -4.709110
v -1.837403 4.801373 -4.435884
v -2.667496 4.801373 -3.992191
v -3.395079 4.801373 -3.395079
v -3.992192 4.801373 -2.667496
v -4.435885 4.801373 -1.837402
v -4.709111 4.801372 -0.936699
v -4.801368 4.801371 0.000002
v -4.709111 4.801371 0.936702
v -4.435886 4.801371 1.837406
v -3.992192 4.801370 2.667500
v -3.395079 4.801370 3.395083
v -2.667496 4.801370 3.992195
v -1.837402 4.801368 4.435890
v -0.936698 4.801368 4.709115
v 0.000003 4.801367 4.801372
v 0.936704 4.801367 4.709115
v 1.837408 4.801367 4.435889
v 2.667502 4.801368 3.992194
v 3.395085 4.801368 3.395081
v 3.992197 4.801368 2.667497
v 4.435890 4.801368 1.837403
v 4.709115 4.801368 0.936699
v 4.801371 4.801368 -0.000002
v 4.709113 4.801368 -0.936703
v 4.435886 4.801370 -1.837407
v 3.992191 4.801370 -2.667501
v 3.395078 4.801371 -3.395083
v 2.667494 4.801371 -3.992194
v 1.837400 4.801371 -4.435887
v 0.936695 4.801372 -4.709112
v 0.000002 4.801370 0.000002
vt 0.500000 0.750000
vt 0.000000 0.500000
vt 0.469336 0.743941
vt 0.441831 0.726608
vt 0.419291 0.700060
vt 0.402043 0.666667
vt 0.389604 0.628510
vt 0.381294 0.587221
vt 0.376544 0.544051
vt 0.375000 0.500000
vt 0.376544 0.455949
vt 0.381294 0.412779
vt 0.389604 0.371490
vt 0.402043 0.333333
vt 0.419291 0.299940
vt 0.441831 0.273392
vt 0.469336 0.256059
vt 0.500000 0.250000
vt 1.000000 0.500000
vt 0.530665 0.256059
vt 0.558170 0.273392
vt 0.580709 0.299940
vt 0.597957 0.333333
vt 0.610396 0.371490
vt 0.618706 0.412779
vt 0.623456 0.455949
vt 0.625000 0.500000
vt 0.623456 0.544051
vt 0.618706 0.587222
vt 0.610396 0.628510
vt 0.597957 0.666667
vt 0.580709 0.700060
vt 0.558169 0.726608
vt 0.530664 0.743941
vt 0.000000 0.000000
vn -0.0878 -0.4455 -0.8910
vn -0.2599 -0.4455 -0.8567
vn -0.4220 -0.4455 -0.7896
vn -0.5680 -0.4455 -0.6921
vn -0.6921 -0.4455 -0.5680
vn -0.7896 -0.4455 -0.4220
vn -0.8567 -0.4455 -0.2599
vn -0.8910 -0.4455 -0.0878
vn -0.8910 -0.4455 0.0878
vn -0.8567 -0.4455 0.2599
vn -0.7896 -0.4455 0.4220
vn -0.6921 -0.4455 0.5680
vn -0.5680 -0.4455 0.6921
vn -0.4220 -0.4455 0.7896
vn -0.2599 -0.4455 0.8567
vn -0.0878 -0.4455 0.8910
vn 0.0878 -0.4455 0.8910
vn 0.2599 -0.4455 0.8567
vn 0.4220 -0.4455 0.7896
vn 0.5680 -0.4455 0.6921
vn 0.6921 -0.4455 0.5680
vn 0.7896 -0.4455 0.4220
vn 0.8567 -0.4455 0.2599
vn 0.8910 -0.4455 0.0878
vn 0.8910 -0.4455 -0.0878
vn 0.8567 -0.4455 -0.2599
vn 0.7896 -0.4455 -0.4220
vn 0.6921 -0.4455 -0.5680
vn 0.5680 -0.4455 -0.6921
vn 0.4220 -0.4455 -0.7896
vn 0.0000 1.0000 0.0000
vn 0.2599 -0.4455 -0.8567
vn 0.0878 -0.4455 -0.8910
usemtl Material.001
s 1
f 1/1/1 2/2/1 3/3/1
f 3/3/2 2/2/2 4/4/2
f 4/4/3 2/2/3 5/5/3
f 5/5/4 2/2/4 6/6/4
f 6/6/5 2/2/5 7/7/5
f 7/7/6 2/2/6 8/8/6
f 8/8/7 2/2/7 9/9/7
f 9/9/8 2/2/8 10/10/8
f 10/10/9 2/2/9 11/11/9
f 11/11/10 2/2/10 12/12/10
f 12/12/11 2/2/11 13/13/11
f 13/13/12 2/2/12 14/14/12
f 14/14/13 2/2/13 15/15/13
f 15/15/14 2/2/14 16/16/14
f 16/16/15 2/2/15 17/17/15
f 17/17/16 2/2/16 18/18/16
f 18/18/17 2/19/17 19/20/17
f 19/20/18 2/19/18 20/21/18
f 20/21/19 2/19/19 21/22/19
f 21/22/20 2/19/20 22/23/20
f 22/23/21 2/19/21 23/24/21
f 23/24/22 2/19/22 24/25/22
f 24/25/23 2/19/23 25/26/23
f 25/26/24 2/19/24 26/27/24
f 26/27/25 2/19/25 27/28/25
f 27/28/26 2/19/26 28/29/26
f 28/29/27 2/19/27 29/30/27
f 29/30/28 2/19/28 30/31/28
f 30/31/29 2/19/29 31/32/29
f 31/32/30 2/19/30 32/33/30
f 33/34/31 1/1/31 34/35/31
f 32/33/32 2/19/32 33/34/32
f 33/34/33 2/19/33 1/1/33
f 33/34/31 34/35/31 32/33/31
f 32/33/31 34/35/31 31/32/31
f 31/32/31 34/35/31 30/31/31
f 30/31/31 34/35/31 29/30/31
f 29/30/31 34/35/31 28/29/31
f 28/29/31 34/35/31 27/28/31
f 27/28/31 34/35/31 26/27/31
f 26/27/31 34/35/31 25/26/31
f 25/26/31 34/35/31 24/25/31
f 24/25/31 34/35/31 23/24/31
f 23/24/31 34/35/31 22/23/31
f 22/23/31 34/35/31 21/22/31
f 21/22/31 34/35/31 20/21/31
f 20/21/31 34/35/31 19/20/31
f 18/18/31 34/35/31 17/17/31
f 18/18/31 19/20/31 34/35/31
f 17/17/31 34/35/31 16/16/31
f 16/16/31 34/35/31 15/15/31
f 15/15/31 34/35/31 14/14/31
f 14/14/31 34/35/31 13/13/31
f 13/13/31 34/35/31 12/12/31
f 12/12/31 34/35/31 11/11/31
f 11/11/31 34/35/31 10/10/31
f 10/10/31 34/35/31 9/9/31
f 9/9/31 34/35/31 8/8/31
f 8/8/31 34/35/31 7/7/31
f 7/7/31 34/35/31 6/6/31
f 6/6/31 34/35/31 5/5/31
f 5/5/31 34/35/31 4/4/31
f 4/4/31 34/35/31 3/3/31
f 3/3/31 34/35/31 1/1/31
