# Blender v3.1.2 OBJ File: ''
# www.blender.org
mtllib remnants.mtl
o 立方体
v 1.000000 1.000000 -0.025000
v -1.000000 -1.000000 0.025000
v 1.000000 1.000000 0.025000
v 1.000000 -1.000000 0.025000
v 1.000000 -1.000000 -0.025000
v -1.000000 -1.000000 -0.025000
vt 0.949638 0.949638
vt 0.966425 0.000000
vt 0.966425 0.949638
vt 1.000000 0.671495
vt 0.983213 0.000000
vt 1.000000 0.000000
vt 0.474819 0.474819
vt 0.949638 0.000000
vt 0.949638 0.949638
vt 0.966425 0.671495
vt 0.966425 0.000000
vt 0.000000 0.474819
vt 0.474819 0.000000
vt 0.474819 0.949638
vt 0.949638 0.000000
vt 0.983213 0.671495
vt 0.983213 0.671495
vn -0.7071 0.7071 0.0000
vn 1.0000 0.0000 0.0000
vn 0.0000 -0.0000 1.0000
vn 0.0000 -1.0000 0.0000
vn 0.0000 0.0000 -1.0000
usemtl None
s 1
f 1/1/1 2/2/1 3/3/1
f 1/4/2 4/5/2 5/6/2
f 4/7/3 3/8/3 2/9/3
f 4/5/4 6/10/4 5/11/4
f 5/12/5 6/13/5 1/14/5
f 1/1/1 6/15/1 2/2/1
f 1/4/2 3/16/2 4/5/2
f 4/5/4 2/17/4 6/10/4
