# Blender v3.1.2 OBJ File: ''
# www.blender.org
mtllib goal.mtl
o 立方体
v 0.228258 1.287787 0.329890
v 0.228258 4.781826 0.329891
v 0.228258 4.781826 -0.329889
v 0.228258 1.287787 -0.329890
v 5.001106 3.034807 0.000000
v 0.000000 -4.977454 -0.421813
v 0.000000 4.977455 -0.421811
v 0.082291 4.977455 -0.413706
v 0.082291 -4.977454 -0.413708
v 0.161421 4.977455 -0.389703
v 0.161421 -4.977454 -0.389705
v 0.234346 4.977455 -0.350723
v 0.234346 -4.977454 -0.350725
v 0.298266 4.977455 -0.298265
v 0.298266 -4.977454 -0.298267
v 0.350724 4.977455 -0.234345
v 0.350724 -4.977454 -0.234347
v 0.389704 4.977455 -0.161420
v 0.389704 -4.977454 -0.161422
v 0.413707 4.977455 -0.082291
v 0.413707 -4.977454 -0.082293
v 0.421812 4.977455 0.000001
v 0.421812 -4.977454 -0.000001
v 0.413707 4.977455 0.082292
v 0.413707 -4.977454 0.082290
v 0.389704 4.977455 0.161421
v 0.389704 -4.977454 0.161419
v 0.350724 4.977455 0.234347
v 0.350724 -4.977454 0.234345
v 0.298266 4.977455 0.298267
v 0.298266 -4.977454 0.298265
v 0.234346 4.977455 0.350725
v 0.234346 -4.977454 0.350723
v 0.161420 4.977455 0.389705
v 0.161420 -4.977454 0.389703
v 0.082291 4.977455 0.413708
v 0.082291 -4.977454 0.413706
v 0.000000 4.977455 0.421813
v 0.000000 -4.977454 0.421811
v -0.082292 4.977455 0.413708
v -0.082292 -4.977454 0.413706
v -0.161421 4.977455 0.389704
v -0.161421 -4.977454 0.389702
v -0.234347 4.977455 0.350725
v -0.234347 -4.977454 0.350723
v -0.298266 4.977455 0.298267
v -0.298266 -4.977454 0.298265
v -0.350724 4.977455 0.234347
v -0.350724 -4.977454 0.234345
v -0.389704 4.977455 0.161421
v -0.389704 -4.977454 0.161419
v -0.413707 4.977455 0.082292
v -0.413707 -4.977454 0.082290
v -0.421812 4.977455 -0.000000
v -0.421812 -4.977454 -0.000002
v -0.413707 4.977455 -0.082291
v -0.413707 -4.977454 -0.082293
v -0.389703 4.977455 -0.161420
v -0.389703 -4.977454 -0.161422
v -0.350724 4.977455 -0.234346
v -0.350724 -4.977454 -0.234348
v -0.298266 4.977455 -0.298266
v -0.298266 -4.977454 -0.298268
v -0.234346 4.977455 -0.350724
v -0.234346 -4.977454 -0.350726
v -0.161420 4.977455 -0.389703
v -0.161420 -4.977454 -0.389705
v -0.082291 4.977455 -0.413706
v -0.082291 -4.977454 -0.413708
v 0.000000 4.977455 0.000001
v 0.000000 -4.977454 -0.000001
vt 0.282554 0.996629
vt 0.282554 0.746629
vt 0.532554 0.746629
vt 0.532554 0.996629
vt 0.782554 0.996629
vt 0.020005 0.746900
vt 0.270005 0.746900
vt 0.270005 0.996900
vt 0.004085 0.748031
vt 0.254085 0.998031
vt 0.004085 0.998031
vt 0.547490 0.744931
vt 0.797490 0.744931
vt 0.797490 0.994931
vt 0.816635 0.336863
vt 0.816635 0.663341
vt 0.796230 0.663341
vt 0.796230 0.336863
vt 0.775826 0.663341
vt 0.775826 0.336863
vt 0.755421 0.663341
vt 0.755421 0.336863
vt 0.735016 0.663341
vt 0.735016 0.336863
vt 0.714611 0.663341
vt 0.714611 0.336863
vt 0.694206 0.663341
vt 0.694206 0.336863
vt 0.673801 0.663341
vt 0.673801 0.336863
vt 0.653396 0.663341
vt 0.653396 0.336863
vt 0.632991 0.663341
vt 0.632991 0.336863
vt 0.612586 0.663341
vt 0.612586 0.336863
vt 0.592181 0.663341
vt 0.592181 0.336863
vt 0.571776 0.663341
vt 0.571776 0.336863
vt 0.551372 0.663341
vt 0.551372 0.336863
vt 0.530967 0.663341
vt 0.530967 0.336863
vt 0.510562 0.663341
vt 0.510562 0.336863
vt 0.490157 0.663341
vt 0.490157 0.336863
vt 0.469752 0.663341
vt 0.469752 0.336863
vt 0.449347 0.663341
vt 0.449347 0.336863
vt 0.428942 0.663341
vt 0.428942 0.336863
vt 0.408537 0.663341
vt 0.408537 0.336863
vt 0.388132 0.663341
vt 0.388132 0.336863
vt 0.367727 0.663341
vt 0.367727 0.336863
vt 0.347323 0.663341
vt 0.347323 0.336863
vt 0.326918 0.663341
vt 0.326918 0.336863
vt 0.306513 0.663341
vt 0.306513 0.336863
vt 0.286108 0.663341
vt 0.286108 0.336863
vt 0.265703 0.663341
vt 0.265703 0.336863
vt 0.245298 0.663341
vt 0.245298 0.336863
vt 0.224893 0.663341
vt 0.224893 0.336863
vt 0.204488 0.663341
vt 0.204488 0.336863
vt 0.184083 0.663341
vt 0.000000 0.000000
vt 0.184083 0.336863
vt 0.163678 0.663341
vt 0.163678 0.336863
vt 0.000000 0.000000
vn -1.0000 -0.0000 0.0000
vn 0.0690 0.0000 -0.9976
vn 0.0690 -0.0000 0.9976
vn 0.3437 -0.9391 0.0000
vn 0.3437 0.9391 0.0000
vn 0.0980 0.0000 -0.9952
vn 0.2903 0.0000 -0.9569
vn 0.4714 0.0000 -0.8819
vn 0.6344 0.0000 -0.7730
vn 0.7730 0.0000 -0.6344
vn 0.8819 0.0000 -0.4714
vn 0.9569 0.0000 -0.2903
vn 0.9952 0.0000 -0.0980
vn 0.9952 -0.0000 0.0980
vn 0.9569 -0.0000 0.2903
vn 0.8819 -0.0000 0.4714
vn 0.7730 -0.0000 0.6344
vn 0.6344 -0.0000 0.7730
vn 0.4714 -0.0000 0.8819
vn 0.2903 -0.0000 0.9569
vn 0.0980 -0.0000 0.9952
vn -0.0980 -0.0000 0.9952
vn -0.2903 -0.0000 0.9569
vn -0.4714 -0.0000 0.8819
vn -0.6344 -0.0000 0.7730
vn -0.7730 -0.0000 0.6344
vn -0.8819 -0.0000 0.4714
vn -0.9569 -0.0000 0.2903
vn -0.9952 -0.0000 0.0980
vn -0.9952 0.0000 -0.0980
vn -0.9569 0.0000 -0.2903
vn -0.8819 0.0000 -0.4714
vn -0.7730 0.0000 -0.6344
vn -0.6344 0.0000 -0.7730
vn -0.4714 0.0000 -0.8819
vn 0.0000 1.0000 0.0000
vn -0.2903 0.0000 -0.9569
vn -0.0980 0.0000 -0.9952
vn 0.0000 -1.0000 0.0000
usemtl Material.001
s 1
f 1/1/1 2/2/1 3/3/1 4/4/1
f 4/4/2 3/3/2 5/5/2
f 5/6/3 2/7/3 1/8/3
f 4/9/4 5/10/4 1/11/4
f 5/12/5 3/13/5 2/14/5
f 6/15/6 7/16/6 8/17/6 9/18/6
f 9/18/7 8/17/7 10/19/7 11/20/7
f 11/20/8 10/19/8 12/21/8 13/22/8
f 13/22/9 12/21/9 14/23/9 15/24/9
f 15/24/10 14/23/10 16/25/10 17/26/10
f 17/26/11 16/25/11 18/27/11 19/28/11
f 19/28/12 18/27/12 20/29/12 21/30/12
f 21/30/13 20/29/13 22/31/13 23/32/13
f 23/32/14 22/31/14 24/33/14 25/34/14
f 25/34/15 24/33/15 26/35/15 27/36/15
f 27/36/16 26/35/16 28/37/16 29/38/16
f 29/38/17 28/37/17 30/39/17 31/40/17
f 31/40/18 30/39/18 32/41/18 33/42/18
f 33/42/19 32/41/19 34/43/19 35/44/19
f 35/44/20 34/43/20 36/45/20 37/46/20
f 37/46/21 36/45/21 38/47/21 39/48/21
f 39/48/22 38/47/22 40/49/22 41/50/22
f 41/50/23 40/49/23 42/51/23 43/52/23
f 43/52/24 42/51/24 44/53/24 45/54/24
f 45/54/25 44/53/25 46/55/25 47/56/25
f 47/56/26 46/55/26 48/57/26 49/58/26
f 49/58/27 48/57/27 50/59/27 51/60/27
f 51/60/28 50/59/28 52/61/28 53/62/28
f 53/62/29 52/61/29 54/63/29 55/64/29
f 55/64/30 54/63/30 56/65/30 57/66/30
f 57/66/31 56/65/31 58/67/31 59/68/31
f 59/68/32 58/67/32 60/69/32 61/70/32
f 61/70/33 60/69/33 62/71/33 63/72/33
f 63/72/34 62/71/34 64/73/34 65/74/34
f 65/74/35 64/73/35 66/75/35 67/76/35
f 68/77/36 66/75/36 70/78/36
f 67/76/37 66/75/37 68/77/37 69/79/37
f 69/79/38 68/77/38 7/80/38 6/81/38
f 39/48/39 71/82/39 37/46/39
f 68/77/36 70/78/36 7/80/36
f 8/17/36 7/80/36 70/78/36
f 10/19/36 8/17/36 70/78/36
f 12/21/36 10/19/36 70/78/36
f 14/23/36 12/21/36 70/78/36
f 16/25/36 14/23/36 70/78/36
f 18/27/36 16/25/36 70/78/36
f 20/29/36 18/27/36 70/78/36
f 22/31/36 20/29/36 70/78/36
f 24/33/36 22/31/36 70/78/36
f 30/39/36 28/37/36 70/78/36
f 32/41/36 30/39/36 70/78/36
f 34/43/36 32/41/36 70/78/36
f 36/45/36 34/43/36 70/78/36
f 38/47/36 36/45/36 70/78/36
f 42/51/36 40/49/36 70/78/36
f 44/53/36 42/51/36 70/78/36
f 46/55/36 44/53/36 70/78/36
f 48/57/36 46/55/36 70/78/36
f 50/59/36 48/57/36 70/78/36
f 28/37/36 26/35/36 70/78/36
f 40/49/36 38/47/36 70/78/36
f 54/63/36 52/61/36 70/78/36
f 56/65/36 54/63/36 70/78/36
f 58/67/36 56/65/36 70/78/36
f 60/69/36 58/67/36 70/78/36
f 62/71/36 60/69/36 70/78/36
f 64/73/36 62/71/36 70/78/36
f 66/75/36 64/73/36 70/78/36
f 37/46/39 71/82/39 35/44/39
f 35/44/39 71/82/39 33/42/39
f 33/42/39 71/82/39 31/40/39
f 31/40/39 71/82/39 29/38/39
f 29/38/39 71/82/39 27/36/39
f 27/36/39 71/82/39 25/34/39
f 25/34/39 71/82/39 23/32/39
f 23/32/39 71/82/39 21/30/39
f 21/30/39 71/82/39 19/28/39
f 19/28/39 71/82/39 17/26/39
f 17/26/39 71/82/39 15/24/39
f 15/24/39 71/82/39 13/22/39
f 13/22/39 71/82/39 11/20/39
f 11/20/39 71/82/39 9/18/39
f 9/18/39 71/82/39 6/15/39
f 69/79/39 6/15/39 71/82/39
f 69/79/39 71/82/39 67/76/39
f 67/76/39 71/82/39 65/74/39
f 65/74/39 71/82/39 63/72/39
f 63/72/39 71/82/39 61/70/39
f 61/70/39 71/82/39 59/68/39
f 59/68/39 71/82/39 57/66/39
f 57/66/39 71/82/39 55/64/39
f 55/64/39 71/82/39 53/62/39
f 53/62/39 71/82/39 51/60/39
f 51/60/39 71/82/39 49/58/39
f 49/58/39 71/82/39 47/56/39
f 47/56/39 71/82/39 45/54/39
f 45/54/39 71/82/39 43/52/39
f 43/52/39 71/82/39 41/50/39
f 39/48/39 41/50/39 71/82/39
f 52/61/36 50/59/36 70/78/36
f 26/35/36 24/33/36 70/78/36
